<svg width="24" height="24" viewBox="0 0 24 24" fill="none" xmlns="http://www.w3.org/2000/svg">
<path d="M6 8C6 6.4087 6.63214 4.88258 7.75736 3.75736C8.88258 2.63214 10.4087 2 12 2C13.5913 2 15.1174 2.63214 16.2426 3.75736C17.3679 4.88258 18 6.4087 18 8C18 15 21 17 21 17H3C3 17 6 15 6 8Z" stroke="#8A8A8A" stroke-width="1.5" stroke-linecap="round" stroke-linejoin="round"/>
<path d="M10.3 20.75C10.4674 21.0544 10.7135 21.3083 11.0125 21.4852C11.3116 21.662 11.6526 21.7553 12 21.7553C12.3475 21.7553 12.6885 21.662 12.9876 21.4852C13.2866 21.3083 13.5327 21.0544 13.7 20.75" stroke="#8A8A8A" stroke-width="1.5" stroke-linecap="round" stroke-linejoin="round"/>
</svg>
