<svg width="24" height="24" viewBox="0 0 24 24" fill="none" xmlns="http://www.w3.org/2000/svg">
<rect x="0.5" y="0.5" width="23" height="23" rx="3.5" stroke="#8F8F8F"/>
<path d="M9.3335 5.33325V7.99992" stroke="#8F8F8F" stroke-linecap="round" stroke-linejoin="round"/>
<path d="M14.6665 5.33325V7.99992" stroke="#8F8F8F" stroke-linecap="round" stroke-linejoin="round"/>
<path d="M16.6667 6.66675H7.33333C6.59695 6.66675 6 7.2637 6 8.00008V17.3334C6 18.0698 6.59695 18.6667 7.33333 18.6667H16.6667C17.403 18.6667 18 18.0698 18 17.3334V8.00008C18 7.2637 17.403 6.66675 16.6667 6.66675Z" stroke="#8F8F8F" stroke-linecap="round" stroke-linejoin="round"/>
<path d="M6 10.6667H18" stroke="#8F8F8F" stroke-linecap="round" stroke-linejoin="round"/>
<path d="M9.3335 13.3333H9.34016" stroke="#8F8F8F" stroke-linecap="round" stroke-linejoin="round"/>
<path d="M12 13.3333H12.0067" stroke="#8F8F8F" stroke-linecap="round" stroke-linejoin="round"/>
<path d="M14.6665 13.3333H14.6732" stroke="#8F8F8F" stroke-linecap="round" stroke-linejoin="round"/>
<path d="M9.3335 16H9.34016" stroke="#8F8F8F" stroke-linecap="round" stroke-linejoin="round"/>
<path d="M12 16H12.0067" stroke="#8F8F8F" stroke-linecap="round" stroke-linejoin="round"/>
<path d="M14.6665 16H14.6732" stroke="#8F8F8F" stroke-linecap="round" stroke-linejoin="round"/>
</svg>
