<svg width="24" height="24" viewBox="0 0 24 24" fill="none" xmlns="http://www.w3.org/2000/svg">
<rect x="0.5" y="0.5" width="23" height="23" rx="3.5" stroke="#8F8F8F"/>
<g clip-path="url(#clip0_8_202)">
<path d="M12.3908 5.72392C12.1408 5.47385 11.8018 5.33333 11.4482 5.33325H6.66683C6.31321 5.33325 5.97407 5.47373 5.72402 5.72378C5.47397 5.97382 5.3335 6.31296 5.3335 6.66659V11.4479C5.33357 11.8015 5.4741 12.1406 5.72416 12.3906L11.5268 18.1933C11.8298 18.4943 12.2397 18.6633 12.6668 18.6633C13.094 18.6633 13.5038 18.4943 13.8068 18.1933L18.1935 13.8066C18.4946 13.5036 18.6636 13.0938 18.6636 12.6666C18.6636 12.2394 18.4946 11.8296 18.1935 11.5266L12.3908 5.72392Z" stroke="#8F8F8F" stroke-linecap="round" stroke-linejoin="round"/>
<path d="M8.99984 9.33341C9.18393 9.33341 9.33317 9.18418 9.33317 9.00008C9.33317 8.81599 9.18393 8.66675 8.99984 8.66675C8.81574 8.66675 8.6665 8.81599 8.6665 9.00008C8.6665 9.18418 8.81574 9.33341 8.99984 9.33341Z" fill="#8F8F8F" stroke="#8F8F8F" stroke-linecap="round" stroke-linejoin="round"/>
</g>
<defs>
<clipPath id="clip0_8_202">
<rect width="16" height="16" fill="white" transform="translate(4 4)"/>
</clipPath>
</defs>
</svg>
